<svg width="178" height="32" viewBox="0 0 178 32" fill="none" xmlns="http://www.w3.org/2000/svg">
<path d="M16 0C24.8366 0 32 7.16344 32 16H27.7334C27.7334 22.4801 22.4801 27.7334 16 27.7334C9.51991 27.7333 4.2666 22.4801 4.2666 16C4.2666 10.2485 8.40483 5.46334 13.8662 4.45996C13.6933 4.42822 13.5192 4.40006 13.3438 4.37598C13.5195 4.40008 13.694 4.42815 13.8672 4.45996C19.3285 5.46337 23.4668 10.2486 23.4668 16H27.7334C27.7334 7.88859 21.6975 1.1859 13.8721 0.140625C14.5683 0.0481077 15.2785 0 16 0ZM9.86133 4.41699C10.0445 4.38761 10.2291 4.36259 10.415 4.3418C10.2291 4.36259 10.0445 4.38761 9.86133 4.41699ZM11.1826 4.2793C11.1566 4.2805 11.1305 4.28183 11.1045 4.2832C11.1305 4.28183 11.1566 4.2805 11.1826 4.2793Z" fill="white"/>
<path d="M48.233 8.45455V23H45.2074V8.45455H48.233ZM50.6566 23V12.0909H53.6822V23H50.6566ZM52.1765 10.6847C51.7267 10.6847 51.3408 10.5355 51.0188 10.2372C50.7016 9.93419 50.543 9.57197 50.543 9.15057C50.543 8.7339 50.7016 8.37642 51.0188 8.07812C51.3408 7.77509 51.7267 7.62358 52.1765 7.62358C52.6263 7.62358 53.0098 7.77509 53.3271 8.07812C53.649 8.37642 53.81 8.7339 53.81 9.15057C53.81 9.57197 53.649 9.93419 53.3271 10.2372C53.0098 10.5355 52.6263 10.6847 52.1765 10.6847ZM59.1314 16.6932V23H56.1058V12.0909H58.9893V14.0156H59.1172C59.3587 13.3812 59.7635 12.8793 60.3317 12.5099C60.8999 12.1359 61.5888 11.9489 62.3984 11.9489C63.156 11.9489 63.8165 12.1146 64.38 12.446C64.9434 12.7775 65.3814 13.2509 65.6939 13.8665C66.0064 14.4773 66.1626 15.2064 66.1626 16.054V23H63.1371V16.5938C63.1418 15.9261 62.9714 15.4053 62.6257 15.0312C62.2801 14.6525 61.8042 14.4631 61.1982 14.4631C60.791 14.4631 60.4311 14.5507 60.1186 14.7259C59.8108 14.901 59.5694 15.1567 59.3942 15.4929C59.2237 15.8243 59.1361 16.2244 59.1314 16.6932ZM73.462 27.3182C72.4819 27.3182 71.6415 27.1832 70.9407 26.9134C70.2447 26.6482 69.6907 26.286 69.2788 25.8267C68.8668 25.3674 68.5993 24.8513 68.4762 24.2784L71.2745 23.902C71.3597 24.1198 71.4947 24.3234 71.6793 24.5128C71.864 24.7022 72.1078 24.8537 72.4109 24.9673C72.7186 25.0857 73.0927 25.1449 73.533 25.1449C74.1912 25.1449 74.7333 24.9839 75.1594 24.6619C75.5903 24.3447 75.8058 23.812 75.8058 23.0639V21.0682H75.6779C75.5453 21.3712 75.3465 21.6577 75.0813 21.9276C74.8162 22.1974 74.4753 22.4176 74.0586 22.5881C73.6419 22.7585 73.1448 22.8438 72.5671 22.8438C71.748 22.8438 71.0022 22.6544 70.3299 22.2756C69.6623 21.892 69.1296 21.3073 68.7319 20.5213C68.3389 19.7306 68.1424 18.7315 68.1424 17.5241C68.1424 16.2884 68.3436 15.2562 68.7461 14.4276C69.1486 13.599 69.6836 12.9787 70.3512 12.5668C71.0236 12.1548 71.7598 11.9489 72.56 11.9489C73.1708 11.9489 73.6822 12.053 74.0941 12.2614C74.506 12.465 74.8375 12.7206 75.0884 13.0284C75.3441 13.3314 75.5406 13.6297 75.6779 13.9233H75.7915V12.0909H78.7958V23.1065C78.7958 24.0346 78.5685 24.8111 78.114 25.4361C77.6594 26.0611 77.0297 26.5298 76.2248 26.8423C75.4246 27.1596 74.5037 27.3182 73.462 27.3182ZM73.5259 20.571C74.0136 20.571 74.4255 20.4503 74.7617 20.2088C75.1026 19.9626 75.363 19.6122 75.543 19.1577C75.7276 18.6984 75.82 18.1491 75.82 17.5099C75.82 16.8707 75.73 16.3168 75.5501 15.848C75.3701 15.3745 75.1097 15.0076 74.7688 14.7472C74.4279 14.4867 74.0136 14.3565 73.5259 14.3565C73.0288 14.3565 72.6097 14.4915 72.2688 14.7614C71.9279 15.0265 71.6699 15.3958 71.4947 15.8693C71.3195 16.3428 71.2319 16.8897 71.2319 17.5099C71.2319 18.1397 71.3195 18.6842 71.4947 19.1435C71.6746 19.598 71.9326 19.9508 72.2688 20.2017C72.6097 20.4479 73.0288 20.571 73.5259 20.571ZM83.945 19.8608L83.9521 16.2315H84.3924L87.8867 12.0909H91.3597L86.6651 17.5739H85.9478L83.945 19.8608ZM81.2035 23V8.45455H84.229V23H81.2035ZM88.0217 23L84.8114 18.2486L86.8285 16.1108L91.5657 23H88.0217ZM95.9549 23.206C95.2589 23.206 94.6386 23.0852 94.0941 22.8438C93.5496 22.5975 93.1187 22.2353 92.8015 21.7571C92.489 21.2741 92.3327 20.6728 92.3327 19.9531C92.3327 19.3471 92.444 18.8381 92.6665 18.4261C92.8891 18.0142 93.1921 17.6828 93.5756 17.4318C93.9592 17.1809 94.3948 16.9915 94.8825 16.8636C95.3749 16.7358 95.891 16.6458 96.4308 16.5938C97.0652 16.5275 97.5766 16.4659 97.9648 16.4091C98.3531 16.3475 98.6348 16.2576 98.81 16.1392C98.9852 16.0208 99.0728 15.8456 99.0728 15.6136V15.571C99.0728 15.1212 98.9308 14.7732 98.6467 14.527C98.3673 14.2808 97.9696 14.1577 97.4535 14.1577C96.909 14.1577 96.4757 14.2784 96.1538 14.5199C95.8318 14.7566 95.6187 15.0549 95.5146 15.4148L92.7163 15.1875C92.8583 14.5246 93.1377 13.9517 93.5543 13.4688C93.971 12.9811 94.5084 12.607 95.1665 12.3466C95.8294 12.0814 96.5965 11.9489 97.4677 11.9489C98.0737 11.9489 98.6538 12.0199 99.2077 12.1619C99.7665 12.304 100.261 12.5241 100.692 12.8224C101.128 13.1207 101.471 13.5043 101.722 13.973C101.973 14.437 102.098 14.9934 102.098 15.642V23H99.229V21.4872H99.1438C98.9686 21.8281 98.7343 22.1288 98.4407 22.3892C98.1471 22.6449 97.7944 22.8461 97.3825 22.9929C96.9705 23.1349 96.4947 23.206 95.9549 23.206ZM96.8214 21.1179C97.2665 21.1179 97.6594 21.0303 98.0004 20.8551C98.3413 20.6752 98.6088 20.4337 98.8029 20.1307C98.997 19.8277 99.0941 19.4844 99.0941 19.1009V17.9432C98.9994 18.0047 98.8692 18.0616 98.7035 18.1136C98.5425 18.161 98.3602 18.206 98.1566 18.2486C97.953 18.2865 97.7494 18.322 97.5458 18.3551C97.3422 18.3835 97.1576 18.4096 96.9918 18.4332C96.6367 18.4853 96.3266 18.5682 96.0614 18.6818C95.7963 18.7955 95.5903 18.9493 95.4435 19.1435C95.2968 19.3329 95.2234 19.5696 95.2234 19.8537C95.2234 20.2656 95.3725 20.5805 95.6708 20.7983C95.9738 21.0114 96.3574 21.1179 96.8214 21.1179ZM104.446 23V12.0909H107.379V13.9943H107.493C107.691 13.3172 108.025 12.8059 108.494 12.4602C108.963 12.1098 109.502 11.9347 110.113 11.9347C110.265 11.9347 110.428 11.9441 110.603 11.9631C110.779 11.982 110.932 12.008 111.065 12.0412V14.7259C110.923 14.6832 110.726 14.6454 110.475 14.6122C110.225 14.5791 109.995 14.5625 109.787 14.5625C109.342 14.5625 108.944 14.6596 108.593 14.8537C108.248 15.0431 107.973 15.3082 107.77 15.6491C107.571 15.9901 107.471 16.383 107.471 16.8281V23H104.446ZM126.335 15.2017L123.565 15.3722C123.518 15.1354 123.416 14.9223 123.26 14.733C123.103 14.5388 122.897 14.3849 122.642 14.2713C122.391 14.1529 122.09 14.0938 121.74 14.0938C121.271 14.0938 120.876 14.1932 120.554 14.392C120.232 14.5862 120.071 14.8466 120.071 15.1733C120.071 15.4337 120.175 15.6539 120.383 15.8338C120.592 16.0137 120.949 16.1581 121.456 16.267L123.43 16.6648C124.491 16.8826 125.281 17.233 125.802 17.7159C126.323 18.1989 126.583 18.8333 126.583 19.6193C126.583 20.3343 126.373 20.9616 125.951 21.5014C125.535 22.0412 124.962 22.4626 124.233 22.7656C123.508 23.0639 122.672 23.2131 121.725 23.2131C120.281 23.2131 119.131 22.9124 118.274 22.3111C117.422 21.705 116.922 20.8812 116.775 19.8395L119.751 19.6832C119.841 20.1236 120.059 20.4598 120.404 20.6918C120.75 20.919 121.193 21.0327 121.733 21.0327C122.263 21.0327 122.689 20.9309 123.011 20.7273C123.338 20.5189 123.503 20.2514 123.508 19.9247C123.503 19.6501 123.387 19.4252 123.16 19.25C122.933 19.0701 122.583 18.9328 122.109 18.8381L120.22 18.4616C119.154 18.2486 118.361 17.8793 117.841 17.3537C117.324 16.8281 117.066 16.1581 117.066 15.3438C117.066 14.643 117.256 14.0393 117.635 13.5327C118.018 13.026 118.556 12.6354 119.247 12.3608C119.943 12.0862 120.757 11.9489 121.69 11.9489C123.068 11.9489 124.152 12.2401 124.943 12.8224C125.738 13.4048 126.202 14.1979 126.335 15.2017ZM134.291 12.0909V14.3636H127.722V12.0909H134.291ZM129.213 9.47727H132.239V19.6477C132.239 19.9271 132.281 20.1449 132.366 20.3011C132.452 20.4527 132.57 20.5592 132.722 20.6207C132.878 20.6823 133.058 20.7131 133.261 20.7131C133.403 20.7131 133.545 20.7012 133.688 20.6776C133.83 20.6491 133.938 20.6278 134.014 20.6136L134.49 22.8651C134.339 22.9124 134.125 22.9669 133.851 23.0284C133.576 23.0947 133.242 23.1349 132.849 23.1491C132.12 23.1776 131.481 23.0805 130.932 22.858C130.387 22.6354 129.964 22.2898 129.661 21.821C129.357 21.3523 129.208 20.7604 129.213 20.0455V9.47727ZM143.258 18.3551V12.0909H146.283V23H143.379V21.0185H143.265C143.019 21.6577 142.609 22.1714 142.036 22.5597C141.468 22.9479 140.774 23.142 139.955 23.142C139.226 23.142 138.585 22.9763 138.031 22.6449C137.477 22.3134 137.043 21.8423 136.731 21.2315C136.423 20.6207 136.267 19.8892 136.262 19.0369V12.0909H139.288V18.4972C139.292 19.1411 139.465 19.6501 139.806 20.0241C140.147 20.3982 140.604 20.5852 141.177 20.5852C141.541 20.5852 141.882 20.5024 142.2 20.3366C142.517 20.1662 142.772 19.9152 142.967 19.5838C143.165 19.2524 143.263 18.8428 143.258 18.3551ZM152.723 23.1776C151.895 23.1776 151.144 22.9645 150.472 22.5384C149.804 22.1075 149.274 21.4754 148.881 20.642C148.493 19.804 148.299 18.7765 148.299 17.5597C148.299 16.3097 148.5 15.2704 148.902 14.4418C149.305 13.6084 149.84 12.9858 150.507 12.5739C151.18 12.1572 151.916 11.9489 152.716 11.9489C153.327 11.9489 153.836 12.053 154.243 12.2614C154.655 12.465 154.987 12.7206 155.238 13.0284C155.493 13.3314 155.687 13.6297 155.82 13.9233H155.912V8.45455H158.931V23H155.948V21.2528H155.82C155.678 21.5559 155.477 21.8565 155.216 22.1548C154.961 22.4484 154.627 22.6922 154.215 22.8864C153.808 23.0805 153.31 23.1776 152.723 23.1776ZM153.682 20.7699C154.17 20.7699 154.582 20.6373 154.918 20.3722C155.259 20.1023 155.519 19.7259 155.699 19.2429C155.884 18.7599 155.976 18.1941 155.976 17.5455C155.976 16.8968 155.886 16.3333 155.706 15.8551C155.526 15.3769 155.266 15.0076 154.925 14.7472C154.584 14.4867 154.17 14.3565 153.682 14.3565C153.185 14.3565 152.766 14.4915 152.425 14.7614C152.084 15.0312 151.826 15.4053 151.651 15.8835C151.476 16.3617 151.388 16.9157 151.388 17.5455C151.388 18.1799 151.476 18.741 151.651 19.2287C151.831 19.7116 152.089 20.0904 152.425 20.3651C152.766 20.6349 153.185 20.7699 153.682 20.7699ZM161.418 23V12.0909H164.444V23H161.418ZM162.938 10.6847C162.488 10.6847 162.103 10.5355 161.781 10.2372C161.463 9.93419 161.305 9.57197 161.305 9.15057C161.305 8.7339 161.463 8.37642 161.781 8.07812C162.103 7.77509 162.488 7.62358 162.938 7.62358C163.388 7.62358 163.772 7.77509 164.089 8.07812C164.411 8.37642 164.572 8.7339 164.572 9.15057C164.572 9.57197 164.411 9.93419 164.089 10.2372C163.772 10.5355 163.388 10.6847 162.938 10.6847ZM171.797 23.2131C170.693 23.2131 169.739 22.9787 168.934 22.5099C168.134 22.0365 167.516 21.3783 167.081 20.5355C166.645 19.688 166.427 18.7055 166.427 17.5881C166.427 16.4612 166.645 15.4763 167.081 14.6335C167.516 13.786 168.134 13.1278 168.934 12.6591C169.739 12.1856 170.693 11.9489 171.797 11.9489C172.9 11.9489 173.851 12.1856 174.652 12.6591C175.457 13.1278 176.077 13.786 176.512 14.6335C176.948 15.4763 177.166 16.4612 177.166 17.5881C177.166 18.7055 176.948 19.688 176.512 20.5355C176.077 21.3783 175.457 22.0365 174.652 22.5099C173.851 22.9787 172.9 23.2131 171.797 23.2131ZM171.811 20.8693C172.313 20.8693 172.732 20.7273 173.068 20.4432C173.404 20.1544 173.657 19.7614 173.828 19.2642C174.003 18.767 174.091 18.2012 174.091 17.5668C174.091 16.9323 174.003 16.3665 173.828 15.8693C173.657 15.3722 173.404 14.9792 173.068 14.6903C172.732 14.4015 172.313 14.2571 171.811 14.2571C171.304 14.2571 170.878 14.4015 170.532 14.6903C170.191 14.9792 169.933 15.3722 169.758 15.8693C169.588 16.3665 169.502 16.9323 169.502 17.5668C169.502 18.2012 169.588 18.767 169.758 19.2642C169.933 19.7614 170.191 20.1544 170.532 20.4432C170.878 20.7273 171.304 20.8693 171.811 20.8693Z" fill="white"/>
</svg>
